<svg width="36" height="36" viewBox="0 0 36 36" fill="none" xmlns="http://www.w3.org/2000/svg">
<path d="M29.207 14.2282L26.8739 7.90063L23.751 8.59059L29.207 14.2282Z" fill="#B868FF" stroke="#111112" stroke-width="0.18" stroke-miterlimit="10" stroke-linecap="round" stroke-linejoin="round"/>
<path d="M30.7686 14.3825L29.2071 14.2282L26.874 7.90063L30.7686 14.3825Z" fill="#AF61FF" stroke="#111112" stroke-width="0.18" stroke-miterlimit="10" stroke-linecap="round" stroke-linejoin="round"/>
<path d="M30.7685 20.4832L29.207 14.2283L30.7685 14.3826V20.4832Z" fill="#491CFF" stroke="#111112" stroke-width="0.18" stroke-miterlimit="10" stroke-linecap="round" stroke-linejoin="round"/>
<path d="M27.1826 27.4553L27.0283 23.1249L30.7686 20.4832L27.1826 27.4553Z" fill="#491CFF" stroke="#111112" stroke-width="0.18" stroke-miterlimit="10" stroke-linecap="round" stroke-linejoin="round"/>
<path d="M20.6191 29.5615L27.0284 23.125L27.1828 27.4554L20.6191 29.5615Z" fill="#491CFF" stroke="#111112" stroke-width="0.18" stroke-miterlimit="10" stroke-linecap="round" stroke-linejoin="round"/>
<path d="M13.7012 30.3786L20.6188 29.5615L20.9275 30.5057L13.7012 30.3786Z" fill="#491CFF" stroke="#111112" stroke-width="0.18" stroke-miterlimit="10" stroke-linecap="round" stroke-linejoin="round"/>
<path d="M27.1828 27.4553L20.6191 29.5615L20.9278 30.5056L27.1828 27.4553Z" fill="#491CFF" stroke="#111112" stroke-width="0.18" stroke-miterlimit="10" stroke-linecap="round" stroke-linejoin="round"/>
<path d="M11.7767 26.6382L13.7013 30.3784L7.78223 26.1479L11.7767 26.6382Z" fill="#5C29FF" stroke="#111112" stroke-width="0.18" stroke-miterlimit="10" stroke-linecap="round" stroke-linejoin="round"/>
<path d="M20.6196 29.5614L11.7773 26.6382L13.7019 30.3784L20.6196 29.5614Z" fill="#5222FF" stroke="#111112" stroke-width="0.18" stroke-miterlimit="10" stroke-linecap="round" stroke-linejoin="round"/>
<path d="M27.0283 23.125L18.876 23.9693L20.619 29.5615L27.0283 23.125Z" fill="#5222FF" stroke="#111112" stroke-width="0.18" stroke-miterlimit="10" stroke-linecap="round" stroke-linejoin="round"/>
<path d="M29.2077 14.2283L27.0289 23.125L22.29 15.6717L29.2077 14.2283Z" fill="#5C29FF" stroke="#111112" stroke-width="0.18" stroke-miterlimit="10" stroke-linecap="round" stroke-linejoin="round"/>
<path d="M18.876 23.9692L22.2894 15.6716L27.0283 23.1249L18.876 23.9692Z" fill="#5222FF" stroke="#111112" stroke-width="0.18" stroke-miterlimit="10" stroke-linecap="round" stroke-linejoin="round"/>
<path d="M23.7516 8.59058L22.29 15.6716L29.2077 14.2282L23.7516 8.59058Z" fill="#8A48FF" stroke="#111112" stroke-width="0.18" stroke-miterlimit="10" stroke-linecap="round" stroke-linejoin="round"/>
<path d="M19.2124 4.59619L15.5176 8.87207L23.7516 8.59064L19.2124 4.59619Z" fill="#DD81FF" stroke="#111112" stroke-width="0.18" stroke-miterlimit="10" stroke-linecap="round" stroke-linejoin="round"/>
<path d="M10.96 6.41185L15.5173 8.87207L19.2121 4.59619L10.96 6.41185Z" fill="#D47BFF" stroke="#111112" stroke-width="0.18" stroke-miterlimit="10" stroke-linecap="round" stroke-linejoin="round"/>
<path d="M22.29 15.6716L15.5176 8.872L23.7516 8.59058L22.29 15.6716Z" fill="#A65BFF" stroke="#111112" stroke-width="0.18" stroke-miterlimit="10" stroke-linecap="round" stroke-linejoin="round"/>
<path d="M18.8765 23.9692L12.4219 17.8686L22.29 15.6716L18.8765 23.9692Z" fill="#652FFF" stroke="#111112" stroke-width="0.18" stroke-miterlimit="10" stroke-linecap="round" stroke-linejoin="round"/>
<path d="M15.5176 8.87207L12.4219 17.8687L22.29 15.6717L15.5176 8.87207Z" fill="#934FFF" stroke="#111112" stroke-width="0.18" stroke-miterlimit="10" stroke-linecap="round" stroke-linejoin="round"/>
<path d="M10.9599 6.41187L8.41797 12.1312L15.5172 8.87209L10.9599 6.41187Z" fill="#BE76FF" stroke="#111112" stroke-width="0.18" stroke-miterlimit="10" stroke-linecap="round" stroke-linejoin="round"/>
<path d="M7.7826 26.1482L6.08496 19.6663L11.7771 26.6384L7.7826 26.1482Z" fill="#5C29FF" stroke="#111112" stroke-width="0.18" stroke-miterlimit="10" stroke-linecap="round" stroke-linejoin="round"/>
<path d="M12.4216 17.8687L11.7771 26.6383L6.08496 19.6662L12.4216 17.8687Z" fill="#652FFF" stroke="#111112" stroke-width="0.18" stroke-miterlimit="10" stroke-linecap="round" stroke-linejoin="round"/>
<path d="M18.8766 23.9693L11.7773 26.6383L12.4219 17.8687L18.8766 23.9693Z" fill="#5C29FF" stroke="#111112" stroke-width="0.18" stroke-miterlimit="10" stroke-linecap="round" stroke-linejoin="round"/>
<path d="M8.41808 12.1311L12.4216 17.8686L6.08496 19.6661L8.41808 12.1311Z" fill="#934FFF" stroke="#111112" stroke-width="0.18" stroke-miterlimit="10" stroke-linecap="round" stroke-linejoin="round"/>
<path d="M6.06686 12.7212L6.08501 19.6661L4.55078 19.8477L6.06686 12.7212Z" fill="#8F65FF" stroke="#111112" stroke-width="0.18" stroke-miterlimit="10" stroke-linecap="round" stroke-linejoin="round"/>
<path d="M7.78266 26.1482L4.55078 19.8478L6.08501 19.6663L7.78266 26.1482Z" fill="#652FFF" stroke="#111112" stroke-width="0.18" stroke-miterlimit="10" stroke-linecap="round" stroke-linejoin="round"/>
<path d="M8.41769 12.1312L6.06641 12.7213L10.9596 6.41187L8.41769 12.1312Z" fill="#9F6BFF" stroke="#111112" stroke-width="0.18" stroke-miterlimit="10" stroke-linecap="round" stroke-linejoin="round"/>
<path d="M29.2071 14.2283L27.0283 23.125L30.7686 20.4832L29.2071 14.2283Z" fill="#491CFF" stroke="#111112" stroke-width="0.18" stroke-miterlimit="10" stroke-linecap="round" stroke-linejoin="round"/>
<path d="M18.8766 23.9692L11.7773 26.6383L20.6196 29.5615L18.8766 23.9692Z" fill="#5222FF" stroke="#111112" stroke-width="0.18" stroke-miterlimit="10" stroke-linecap="round" stroke-linejoin="round"/>
<path d="M8.41797 12.1312L15.5172 8.87207L12.4215 17.8687L8.41797 12.1312Z" fill="#9C55FF" stroke="#111112" stroke-width="0.18" stroke-miterlimit="10" stroke-linecap="round" stroke-linejoin="round"/>
<path d="M6.06641 12.7212L6.08456 19.6661L8.41769 12.1311L6.06641 12.7212Z" fill="#9F6BFF" stroke="#111112" stroke-width="0.18" stroke-miterlimit="10" stroke-linecap="round" stroke-linejoin="round"/>
<path d="M19.2119 4.59619L23.7511 8.59064L26.874 7.90069L19.2119 4.59619Z" fill="#DD81FF" stroke="#111112" stroke-width="0.18" stroke-miterlimit="10" stroke-linecap="round" stroke-linejoin="round"/>
<path d="M15.5185 10.0974C16.1954 10.0974 16.7441 9.54868 16.7441 8.87181C16.7441 8.19495 16.1954 7.64624 15.5185 7.64624C14.8417 7.64624 14.293 8.19495 14.293 8.87181C14.293 9.54868 14.8417 10.0974 15.5185 10.0974Z" fill="#111112"/>
<path d="M22.291 16.8969C22.9679 16.8969 23.5166 16.3482 23.5166 15.6714C23.5166 14.9945 22.9679 14.4458 22.291 14.4458C21.6141 14.4458 21.0654 14.9945 21.0654 15.6714C21.0654 16.3482 21.6141 16.8969 22.291 16.8969Z" fill="#111112"/>
<path d="M27.03 23.851C27.4311 23.851 27.7562 23.5258 27.7562 23.1247C27.7562 22.7236 27.4311 22.3984 27.03 22.3984C26.6289 22.3984 26.3037 22.7236 26.3037 23.1247C26.3037 23.5258 26.6289 23.851 27.03 23.851Z" fill="#111112"/>
<path d="M29.2087 14.9542C29.6098 14.9542 29.9349 14.6291 29.9349 14.228C29.9349 13.8269 29.6098 13.5017 29.2087 13.5017C28.8076 13.5017 28.4824 13.8269 28.4824 14.228C28.4824 14.6291 28.8076 14.9542 29.2087 14.9542Z" fill="#111112"/>
<path d="M8.41865 12.8573C8.81975 12.8573 9.14491 12.5322 9.14491 12.131C9.14491 11.7299 8.81975 11.4048 8.41865 11.4048C8.01754 11.4048 7.69238 11.7299 7.69238 12.131C7.69238 12.5322 8.01754 12.8573 8.41865 12.8573Z" fill="#111112"/>
<path d="M6.10419 20.3922C6.5053 20.3922 6.83046 20.0671 6.83046 19.666C6.83046 19.2649 6.5053 18.9397 6.10419 18.9397C5.70309 18.9397 5.37793 19.2649 5.37793 19.666C5.37793 20.0671 5.70309 20.3922 6.10419 20.3922Z" fill="#111112"/>
<path d="M11.778 27.3644C12.1791 27.3644 12.5043 27.0392 12.5043 26.6381C12.5043 26.237 12.1791 25.9119 11.778 25.9119C11.3769 25.9119 11.0518 26.237 11.0518 26.6381C11.0518 27.0392 11.3769 27.3644 11.778 27.3644Z" fill="#111112"/>
<path d="M23.7525 9.43466C24.2188 9.43466 24.5968 9.05666 24.5968 8.59038C24.5968 8.12409 24.2188 7.74609 23.7525 7.74609C23.2862 7.74609 22.9082 8.12409 22.9082 8.59038C22.9082 9.05666 23.2862 9.43466 23.7525 9.43466Z" fill="#111112"/>
<path d="M20.6206 30.5689C21.0869 30.5689 21.4649 30.1909 21.4649 29.7247C21.4649 29.2584 21.0869 28.8804 20.6206 28.8804C20.1544 28.8804 19.7764 29.2584 19.7764 29.7247C19.7764 30.1909 20.1544 30.5689 20.6206 30.5689Z" fill="#111112"/>
<path d="M12.4228 19.094C13.0997 19.094 13.6484 18.5453 13.6484 17.8684C13.6484 17.1915 13.0997 16.6428 12.4228 16.6428C11.746 16.6428 11.1973 17.1915 11.1973 17.8684C11.1973 18.5453 11.746 19.094 12.4228 19.094Z" fill="#111112"/>
<path d="M18.8773 25.0402C19.509 25.0402 20.0211 24.528 20.0211 23.8963C20.0211 23.2646 19.509 22.7524 18.8773 22.7524C18.2455 22.7524 17.7334 23.2646 17.7334 23.8963C17.7334 24.528 18.2455 25.0402 18.8773 25.0402Z" fill="#111112"/>
<path d="M32.7939 23.969V25.0402L33.375 24.7134L32.7939 23.969Z" fill="#491CFF"/>
<path d="M30.5519 27.6731L29.29 28.0816L29.9891 29.1256L30.5519 27.6731Z" fill="#491CFF"/>
<path d="M27.755 28.1997L26.8926 28.8715L27.9547 29.1257L27.755 28.1997Z" fill="#491CFF"/>
<path d="M22.5439 30.914L24.9134 29.752L24.178 31.377L22.5439 30.914Z" fill="#491CFF"/>
<path d="M18.7404 32.2395L18.5498 32.993L20.3292 32.757L18.7404 32.2395Z" fill="#3818B5"/>
<path d="M15.1181 31.4224L17.8325 31.4678L15.0908 32.6207L15.1181 31.4224Z" fill="#5222FF"/>
<path d="M16.7066 33.3833L16.1982 33.9462L17.1878 34.0642L16.7066 33.3833Z" fill="#0000FF"/>
<path d="M12.0137 31.958H13.5116V32.9566L12.0137 31.958Z" fill="#5222FF"/>
<path d="M9.2263 28.363L11.6502 30.0788L8.3457 29.4797L9.2263 28.363Z" fill="#5C29FF"/>
<path d="M5.77637 29.7249H7.11996V30.8506L5.77637 29.7249Z" fill="#5C29FF"/>
<path d="M6.44878 25.7212L6.33984 28.5082H7.48371L6.44878 25.7212Z" fill="#5C29FF"/>
<path d="M4.36936 21.5452L4.17871 24.4775L5.80373 24.3594L4.36936 21.5452Z" fill="#652FFF"/>
<path d="M4.33301 26.0842L5.17729 26.1478L4.75969 27.1101L4.33301 26.0842Z" fill="#5C29FF"/>
<path d="M2.99135 18.3271L2.61914 19.2077L3.54513 19.126L2.99135 18.3271Z" fill="#8F65FF"/>
<path d="M3.59766 13.166L4.19682 17.106L4.90493 13.747L3.59766 13.166Z" fill="#8F65FF"/>
<path d="M3.19009 14.3999V16.5787L2.12793 16.4516L3.19009 14.3999Z" fill="#9F6BFF"/>
<path d="M4.36035 10.5786H6.00352L4.97768 12.0856L4.36035 10.5786Z" fill="#9F6BFF"/>
<path d="M5.02344 7.90039V8.79007H6.58491L5.02344 7.90039Z" fill="#9F6BFF"/>
<path d="M7.42871 7.30127L7.67383 9.14416L9.30792 7.05615L7.42871 7.30127Z" fill="#9F6BFF"/>
<path d="M10.2798 3.62476L9.25391 4.81401L10.7972 4.93203L10.2798 3.62476Z" fill="#D47BFF"/>
<path d="M11.6689 5.24057L13.766 3.552L15.8268 4.32366L11.6689 5.24057Z" fill="#DD81FF"/>
<path d="M14.6222 2.43433L13.9103 3.03089L14.7898 3.43785L14.6222 2.43433Z" fill="#CB74FF"/>
<path d="M16.8525 2.4353H19.1312L18.2052 3.28866L16.8525 2.4353Z" fill="#C16EFF"/>
<path d="M24.2188 3.10913H25.3445L24.9541 3.98065L24.2188 3.10913Z" fill="#C16EFF"/>
<path d="M19.957 3.76992L22.7622 3.29785L23.4159 5.25876L19.957 3.76992Z" fill="#AE70FF"/>
<path d="M26.4023 5.73071H27.8912L26.8744 6.41159L26.4023 5.73071Z" fill="#DD81FF"/>
<path d="M29.7883 8.59055L28.9894 9.26234L27.9727 7.5647L29.7883 8.59055Z" fill="#B868FF"/>
<path d="M30.7059 9.5437L30.4971 10.6603H32.3127L30.7059 9.5437Z" fill="#AF61FF"/>
<path d="M30.4609 11.7043L32.8485 12.8845L31.623 13.6471L30.4609 11.7043Z" fill="#AF61FF"/>
<path d="M32.4369 13.9465L31.4746 14.9542H32.7274L32.4369 13.9465Z" fill="#491CFF"/>
<path d="M33.7806 16.6909L32.7275 17.1267L33.0453 18.0345L33.7806 16.6909Z" fill="#491CFF"/>
<path d="M31.9043 16.6792V19.2665H32.8666L31.9043 16.6792Z" fill="#491CFF"/>
<path d="M33.8107 19.8203L32.7939 20.9733L33.4113 22.5256L33.8107 19.8203Z" fill="#491CFF"/>
<path d="M31.5859 21.3184L28.7988 26.7653L31.6676 25.449L31.5859 21.3184Z" fill="#491CFF"/>
<mask id="mask0_2367_8318" style="mask-type:alpha" maskUnits="userSpaceOnUse" x="4" y="4" width="27" height="27">
<path d="M19.2049 4.59619L26.8489 7.89161L30.7344 14.3554V20.4378L27.1575 27.3827L20.9207 30.424L13.7126 30.2969L7.81166 26.0845L4.58887 19.7933L6.09587 12.694L10.98 6.41185L19.2049 4.59619Z" fill="#C4C4C4"/>
</mask>
<g mask="url(#mask0_2367_8318)">
<path d="M27.0494 8.59042C27.5156 8.59042 27.8936 8.21242 27.8936 7.74614C27.8936 7.27985 27.5156 6.90186 27.0494 6.90186C26.5831 6.90186 26.2051 7.27985 26.2051 7.74614C26.2051 8.21242 26.5831 8.59042 27.0494 8.59042Z" fill="#111112"/>
<path d="M19.2144 5.24057C19.6807 5.24057 20.0587 4.86257 20.0587 4.39628C20.0587 3.93 19.6807 3.552 19.2144 3.552C18.7481 3.552 18.3701 3.93 18.3701 4.39628C18.3701 4.86257 18.7481 5.24057 19.2144 5.24057Z" fill="#111112"/>
<path d="M10.9624 7.25595C11.4287 7.25595 11.8067 6.87795 11.8067 6.41166C11.8067 5.94538 11.4287 5.56738 10.9624 5.56738C10.4962 5.56738 10.1182 5.94538 10.1182 6.41166C10.1182 6.87795 10.4962 7.25595 10.9624 7.25595Z" fill="#111112"/>
<path d="M5.73393 13.5653C6.20021 13.5653 6.57821 13.1873 6.57821 12.721C6.57821 12.2547 6.20021 11.8767 5.73393 11.8767C5.26765 11.8767 4.88965 12.2547 4.88965 12.721C4.88965 13.1873 5.26765 13.5653 5.73393 13.5653Z" fill="#111112"/>
<path d="M4.33549 20.7464C4.80178 20.7464 5.17978 20.3684 5.17978 19.9021C5.17978 19.4359 4.80178 19.0579 4.33549 19.0579C3.86921 19.0579 3.49121 19.4359 3.49121 19.9021C3.49121 20.3684 3.86921 20.7464 4.33549 20.7464Z" fill="#111112"/>
<path d="M7.6851 27.1012C8.15139 27.1012 8.52938 26.7232 8.52938 26.2569C8.52938 25.7906 8.15139 25.4126 7.6851 25.4126C7.21882 25.4126 6.84082 25.7906 6.84082 26.2569C6.84082 26.7232 7.21882 27.1012 7.6851 27.1012Z" fill="#111112"/>
</g>
</svg>
