<svg width="41" height="40" viewBox="0 0 41 40" fill="none" xmlns="http://www.w3.org/2000/svg">
<path d="M28.1388 14.4368L29.59 13.0346V12.7275H24.564L20.9821 21.7357L16.9077 12.7275H11.6378V13.0346L13.3329 15.0962C13.4986 15.2486 13.5839 15.4724 13.5626 15.6961V23.7973C13.6146 24.0901 13.5223 24.3877 13.3187 24.5996L11.4082 26.9397V27.242H16.8201V26.9349L14.912 24.602C14.706 24.3901 14.6066 24.0949 14.6492 23.7997V16.7912L19.4006 27.2468H19.9522L24.0384 16.7912V25.1209C24.0384 25.3399 24.0384 25.3852 23.8964 25.5304L22.4262 26.9659V27.273H29.5569V26.9659L28.1388 25.5637C28.0157 25.4685 27.9518 25.309 27.9778 25.1543V14.8463C27.9518 14.6915 28.0157 14.532 28.1388 14.4368Z" fill="#D0D0DA"/>
<path d="M20.5 39C10.0066 39 1.5 30.4934 1.5 20H-0.5C-0.5 31.598 8.90202 41 20.5 41V39ZM39.5 20C39.5 30.4934 30.9934 39 20.5 39V41C32.098 41 41.5 31.598 41.5 20H39.5ZM20.5 1C30.9934 1 39.5 9.50659 39.5 20H41.5C41.5 8.40202 32.098 -1 20.5 -1V1ZM20.5 -1C8.90202 -1 -0.5 8.40202 -0.5 20H1.5C1.5 9.50659 10.0066 1 20.5 1V-1Z" fill="white" fill-opacity="0.13"/>
</svg>
