<svg width="18" height="16" viewBox="0 0 18 16" fill="none" xmlns="http://www.w3.org/2000/svg">
<path d="M17.7946 2.55366C17.2965 3.28318 16.6937 3.90461 15.9861 4.41795C15.9937 4.52176 15.9975 4.67795 15.9975 4.88652C15.9975 5.85414 15.8561 6.81938 15.5732 7.78223C15.2903 8.74509 14.8608 9.66937 14.2846 10.5551C13.7084 11.4408 13.0222 12.2241 12.2261 12.9051C11.4299 13.586 10.4699 14.1294 9.34605 14.5351C8.22224 14.9408 7.02082 15.1437 5.74177 15.1437C3.72558 15.1437 1.88034 14.6041 0.206055 13.5251C0.466055 13.5546 0.756055 13.5694 1.07605 13.5694C2.75034 13.5694 4.24225 13.056 5.55177 12.0294C4.77082 12.0141 4.07129 11.7741 3.4532 11.3094C2.8351 10.8446 2.41082 10.2513 2.18034 9.52937C2.42605 9.56652 2.6532 9.58509 2.86177 9.58509C3.18177 9.58509 3.49796 9.54414 3.81034 9.46223C2.97701 9.2908 2.28701 8.87604 1.74034 8.21795C1.19367 7.55985 0.92034 6.79556 0.92034 5.92509V5.8808C1.42605 6.16366 1.96939 6.31604 2.55034 6.33795C2.05891 6.01033 1.66844 5.58271 1.37891 5.05509C1.08939 4.52747 0.94415 3.95461 0.943198 3.33652C0.943198 2.68128 1.10701 2.07509 1.43463 1.51795C2.33463 2.62652 3.43034 3.51366 4.72177 4.17937C6.0132 4.84509 7.3951 5.21509 8.86748 5.28937C8.80844 5.00652 8.77891 4.73128 8.77891 4.46366C8.77891 3.46652 9.13034 2.61652 9.8332 1.91366C10.5361 1.2108 11.3861 0.859375 12.3832 0.859375C13.4251 0.859375 14.3032 1.2389 15.0175 1.99795C15.8289 1.84176 16.5918 1.55176 17.3061 1.12795C17.0308 1.98318 16.5027 2.64557 15.7218 3.11509C16.4142 3.0408 17.1061 2.85461 17.7975 2.55652L17.7946 2.55366Z" fill="#D0D0DA"/>
</svg>
